<svg id="Capa_1" data-name="Capa 1" xmlns="http://www.w3.org/2000/svg" viewBox="0 0 384.13 384.13"><defs><style>.cls-1{fill:#fff;stroke:#fff;stroke-miterlimit:10;stroke-width:4px;}</style></defs><title>5</title><path class="cls-1" d="M192.14,317V243.87h61.42a5.46,5.46,0,0,0,3.74,0c15.29-78.62,72.6-177.64,60.63-201S270.48,25.47,260,42.24c-8,12.84-14.59,21.31-24.54,88.8-21.18-6.92-60.66-16.26-86.91-1-25.42,14.82-34.77,39.48-38.16,53.39-17.84-1.58-31.61-1.12-36.7,2.9-20.57,16.35,0,57.51,0,57.51h26.64v22.95H71.07v13.73h35.61V243.88h64.09V317c-42.78,2.43-78.6,19.24-94.13,42.41H286.27C270.75,336.26,234.93,319.43,192.14,317Zm-30.82-165c17.78-10.34,52-1.88,70.61,4.64-1.83,13.93-3.77,29.85-5.87,48-24.63-5.77-59.76-13.44-90.32-18C138.55,176.71,145.31,161.26,161.32,151.94Z"/></svg>