<svg id="Capa_1" data-name="Capa 1" xmlns="http://www.w3.org/2000/svg" viewBox="0 0 384.13 384.13"><defs><style>.cls-1{fill:#fff;stroke:#fff;stroke-miterlimit:10;stroke-width:2px;}</style></defs><title>2</title><path class="cls-1" d="M342.53,72.07c-46.45,64.14-131,127.3-247.12,188.79,5.57-12.26,10-21.65,12.94-25.72,10.26-14.17,31.13-54.29,31.13-54.29s11,7.65,12.49,4.12,63.7-151.66,63.7-151.66S186.33.57,175.84,24.58L66,276q-11.91,6-24.16,12c-9.2,4-4.45,14.12,10,20.5-13.56,31.07-22.58,51.72-22.58,51.72s-.26,10.3,7.15,7.66c12.64-15.06,24.38-35.32,34.71-55.57,78-6.83,285.5-175.28,296.12-190.83C378.18,105.55,344.89,56.16,342.53,72.07ZM83.19,294.45a6.2,6.2,0,1,1,.06-.06Z"/></svg>