<?xml version="1.0" encoding="utf-8"?>
<!-- Generator: Adobe Illustrator 23.0.0, SVG Export Plug-In . SVG Version: 6.00 Build 0)  -->
<svg version="1.1" xmlns="http://www.w3.org/2000/svg" xmlns:xlink="http://www.w3.org/1999/xlink" x="0px" y="0px"
	 viewBox="0 0 544.2 187.5" style="enable-background:new 0 0 544.2 187.5;" xml:space="preserve">
<style type="text/css">
	.st0{fill:#EFECE6;}
	.st1{fill:none;stroke:#FFFFFF;stroke-width:2;stroke-miterlimit:10;}
	.st2{fill:#FFFFFF;}
</style>
<g id="Background">
	<path id="XMLID_17_" class="st0" d="M680.2,507.8"/>
</g>
<g id="Objects">
	<g id="XMLID_75_">
		<g id="XMLID_74_">
			<g id="XMLID_421_">
				<path id="XMLID_2_" d="M-209.4,215.1"/>
			</g>
		</g>
	</g>
	<rect x="13.7" y="19.7" class="st1" width="122.9" height="122.9"/>
	<g>
		<g>
			<path class="st2" d="M101,33.3C80.8,46.8,68.6,83.5,68.6,83.5c2.9,2.9,1,11.8-14.2,27.1l2.1,2.1C68.2,101,73.8,91.3,72.9,85.1
				L101,33.3z"/>
		</g>
		<g>
			<g>
				<path class="st2" d="M77.1,80.2l-2.8,5.2c0.1,0.6,0.1,1.2,0,1.8c7-2.5,36.8-14.1,48.7-31.9L77.1,80.2z"/>
			</g>
			<g>
				<path class="st2" d="M67.6,84.5L67,83.8l0.1-0.2c-6,1.3-14,6.8-23.3,16.1l2.1,2.1c10.4-10.4,17.9-14.6,22.5-15.2
					C68.3,85.7,68.1,85,67.6,84.5z"/>
			</g>
		</g>
		<g>
			<path class="st2" d="M70.4,108.7c-2.1-2-5-2.8-8-2.4c-2.8,0.4-5.6,1.8-8,4.2c-4.9,4.9-5.7,12.1-1.8,16c3.9,3.9,11.1,3.1,16-1.8
				C73.5,119.8,74.3,112.6,70.4,108.7z M66.3,122.4c-3.6,3.6-8.8,4.5-11.4,1.8c-2.6-2.6-1.8-7.8,1.8-11.4c3.7-3.6,8.8-4.5,11.4-1.8
				C70.8,113.6,69.9,118.8,66.3,122.4z"/>
		</g>
		<g>
			<path class="st2" d="M47.6,85.9c-3.9-3.9-11.1-3.1-16,1.8c-4.9,4.9-5.7,12.1-1.8,16c3.9,3.9,11.1,3.1,16-1.8
				c2.3-2.3,3.8-5.2,4.2-8C50.4,90.9,49.7,87.9,47.6,85.9z M32.1,101.4c-2.6-2.6-1.8-7.8,1.8-11.4c3.7-3.7,8.8-4.5,11.4-1.8
				c2.6,2.6,1.8,7.8-1.8,11.4C39.8,103.3,34.7,104.1,32.1,101.4z"/>
		</g>
	</g>
	<g>
		<path class="st2" d="M235.1,54.1c0,1.4-0.5,2.1-1.5,2.1c-1,0-1.7-1.3-2.1-3.9c-1.2-7.4-3.7-12.8-7.5-16.2c-2.4-2.2-6.2-3.5-11.3-4
			c-1.8-0.2-5.9-0.3-12.2-0.3c-4.7,0-10.3,0.2-16.8,0.5v44.8c13,0.1,21-0.7,24.1-2.5c3-1.8,4.9-6.8,5.5-15c0.2-2.3,0.8-3.5,1.8-3.5
			c1,0,1.5,0.8,1.5,2.3c0,0.9-0.1,1.7-0.2,2.3c-0.3,7-0.5,13.5-0.5,19.5c0,7.7,0.2,13.8,0.5,18.3c0.1,0.4,0.1,1,0.1,1.8
			c0,1.2-0.5,1.8-1.5,1.8c-0.8,0-1.3-0.3-1.5-0.9s-0.6-2.9-1.1-7c-0.8-6.2-2.4-10.1-4.8-11.6s-7.1-2.3-14.2-2.3
			c-3.7,0-7,0.1-9.9,0.3v15.5V126c0,2.9,1.2,4.8,3.5,5.6c1.1,0.4,3.6,0.6,7.4,0.5c1.6,0,2.4,0.4,2.4,1.2c0,0.9-1,1.4-3,1.4h-1.5
			c-1.4,0-3.4,0-5.8,0c-2.3,0-3.9,0-4.7,0h-22.7c-1.9,0-2.9-0.4-2.9-1.2c0-0.8,1.8-1.3,5.3-1.5c3.5-0.2,5.6-0.7,6.2-1.5
			c0.6-0.8,0.9-3.1,0.9-7.1V35.7c-0.1-1.8-0.6-3-1.6-3.4c-1-0.5-3.6-0.7-7.9-0.8c-1.6,0-2.5-0.5-2.5-1.5c0-0.9,0.9-1.4,2.7-1.4h2.4
			c-0.2,0,4.7,0,14.7,0c10,0,18.2,0,24.6,0c17.2,0,27.7-0.3,31.5-0.9c0.1,1.3,0.4,5.1,0.9,11.4c0.3,4.3,0.7,8.1,1.2,11.4
			C235,51.9,235.1,53.1,235.1,54.1z"/>
		<path class="st2" d="M272,133.6c0,0.9-0.9,1.4-2.6,1.4c0.1,0-1.1-0.1-3.7-0.3c-3-0.2-5.6-0.3-7.6-0.3h-15.8
			c-0.5,0.4-1.1,0.6-1.8,0.6c-1.1,0-1.7-0.4-1.7-1.1c0-1.1,1-1.6,3-1.6c3.9-0.1,6-0.4,6.3-0.8c0.4-0.5,0.5-2.6,0.5-6.3V78.9
			c-0.1-2.5-0.2-4-0.4-4.5s-0.8-0.7-1.9-0.7H242c-0.4,0-0.9,0-1.5,0c-1.1,0-1.7-0.4-1.7-1.1c0-0.6,0.9-1,2.6-1.1
			c6.7-0.3,12.5-1.9,17.3-4.7l1.5-0.9c0.8,1.5,1.2,4.3,1.2,8.4c0-0.2,0,0.3,0,1.5c0,1.2,0,3.2,0,5.9v41.5c0,4.1,0.1,6.4,0.2,7.1
			c0.2,0.7,0.7,1.2,1.6,1.4c1.5,0.4,3.8,0.6,6.7,0.6C271.3,132.4,272,132.8,272,133.6z M260.5,38.7c0,4.6-2.3,6.9-6.9,6.9
			c-1.9,0-3.6-0.6-4.9-1.9c-1.3-1.3-2-2.8-2-4.6c0-4.8,2.3-7.2,6.9-7.2C258.3,31.9,260.5,34.2,260.5,38.7z"/>
		<path class="st2" d="M348.3,75.3c0,4.7-2.1,7-6.2,7c-1.4,0-2.7-0.5-3.9-1.4c-1.2-1-1.8-2.1-1.8-3.3c0-0.4,0.2-1,0.5-1.9
			c0.3-0.9,0.5-1.5,0.5-2.1c0-1.3-0.7-2-2.1-2c-1.2,0-2.4,0.6-3.5,1.9c-1.1,1.3-1.7,2.6-1.7,3.9c0,0.3,0.3,2,0.8,5.2
			c0.5,3.1,0.8,5.5,0.8,7.2c0,6.9-2.4,12.7-7.2,17.4c-4.8,4.7-10.7,7-17.8,7c-1.8,0-5.2-0.8-10.1-2.3c-1.3-0.4-2.2-0.6-2.6-0.6
			c-2.1,0-4.1,0.9-5.8,2.6c-1.7,1.7-2.6,3.6-2.6,5.6c0,5.3,3.2,7.9,9.6,7.9c2.4,0,6.3-0.5,11.7-1.4c4.2-0.7,8-1.1,11.4-1.1
			c6.2,0,11,1.6,14.5,4.9c3.5,3.3,5.3,7.8,5.3,13.6c0,8.7-3.7,16-11.2,21.8c-7.5,5.8-16.9,8.7-28.3,8.7c-8.4,0-15.1-1.7-19.9-5.1
			c-4.8-3.4-7.2-8.1-7.2-14.1c0-5.8,2.2-10.2,6.7-13.1c2.2-1.4,5.8-2.7,10.7-3.8c-7.2-2.8-10.8-7.2-10.8-13.1
			c0-7.3,4.7-12.4,14-15.2c-6.1-4.8-9.1-11.1-9.1-18.9c0-7.3,2.3-13.2,7-17.6c4.7-4.4,10.8-6.6,18.4-6.6c4.2,0,7.5,0.6,10.1,1.7
			c2.6,1.1,5.6,3.4,9.1,6.7c3.2-4.8,7.3-7.2,12-7.2C345.4,67.5,348.3,70.1,348.3,75.3z M331.7,148.7c0-8.4-5-12.6-14.9-12.6
			c-2.8,0-7,0.5-12.5,1.4c-5.5,0.9-9.6,1.4-12.4,1.4c-5.2,2.7-7.7,7.6-7.7,14.5c0,5.2,1.8,9.3,5.5,12.5c3.7,3.1,8.6,4.7,14.7,4.7
			c7.7,0,14.2-2.1,19.4-6.3C329,159.9,331.7,154.8,331.7,148.7z M319.9,90.4c0-14.7-4.1-22.1-12.2-22.1c-7.9,0-11.9,6.9-11.9,20.6
			c0,15.4,4.2,23.2,12.6,23.2C316.1,112,319.9,104.8,319.9,90.4z"/>
		<path class="st2" d="M409.8,127.7c0,1.7-1.8,3.5-5.4,5.4s-7,2.8-10.4,2.8c-7,0-10.6-3.6-10.9-10.8c-3.8,7.5-9.8,11.3-17.9,11.3
			c-4.3,0-7.9-1.3-10.8-3.9c-2.8-2.6-4.2-5.9-4.2-10c0-8.3,5-14.9,14.9-19.8c3.4-1.6,9.4-3.2,17.8-4.9V94c0-8.9-0.5-14.8-1.4-17.7
			c-1.6-5.2-5.3-7.8-11-7.8c-3.6,0-6.5,1-8.9,2.9c-2.4,1.9-3.6,4.4-3.6,7.3c0,0.8,0.6,1.2,1.9,1.2c1.2,0,2.4,0.6,3.4,1.8
			c1,1.2,1.5,2.6,1.5,4.1c0,4.5-2.2,6.7-6.6,6.7c-2.3,0-4.2-0.8-5.7-2.4c-1.5-1.6-2.3-3.6-2.3-6c0-4.8,1.9-8.9,5.6-12.3
			c4.2-3.8,10-5.6,17.4-5.6c11.2,0,18,3,20.6,9.1c0.9,2.3,1.4,7,1.4,13.9v28.5c0,4.7,0.1,7.4,0.2,8.2c0.5,3.7,2,5.5,4.4,5.5
			c2.8,0,5.2-1,7-3c1-1.1,1.8-1.7,2.3-1.7C409.6,126.8,409.8,127.1,409.8,127.7z M383,111.5v-11.1c-7.5,1.7-12.9,4-16.1,6.8
			c-3.3,2.8-4.9,6.5-4.9,11.2c0,3.3,0.9,5.9,2.8,8c1.9,2.1,4.2,3.1,7,3.1c4.3,0,7.8-2.4,10.4-7.3C382.7,121.1,383,117.5,383,111.5z"
			/>
		<path class="st2" d="M456.3,77c0,2.3-0.7,4.3-2.1,5.8c-1.4,1.5-3.3,2.3-5.5,2.3c-1.8,0-3.4-0.5-4.6-1.6c-1.2-1.1-1.8-2.4-1.8-4
			c0-1.4,0.5-2.6,1.4-3.7c0.9-1,1.4-1.7,1.4-2.1c0-1.5-1.1-2.3-3.4-2.3c-2.8,0-5.3,1.8-7.3,5.3c-2.3,4.1-3.5,11.8-3.5,23v30
			c0,1.2,0.4,2,1.3,2.3c0.9,0.3,3.5,0.5,7.8,0.6c1.1,0.2,1.7,0.6,1.7,1.2c0,0.7-0.7,1.1-2,1.1c-2.3,0-4.5,0-6.5,0c-2,0-5.9,0-11.6,0
			c-2.9,0-5.1,0-6.4,0c-1.3,0-3,0-5,0c-1.6,0-2.4-0.3-2.4-0.9s0.7-0.9,2-0.9h2.1c3.5,0,5.5-0.4,6.1-1.2c0.2-0.4,0.3-2.3,0.3-5.7V84
			c0-5.6-0.8-8.9-2.5-9.7c-1.7-0.9-4.3-1.4-8-1.5c-1.2,0-1.8-0.4-1.8-1.1c0-0.7,0.5-1.1,1.5-1.1h1.1c1.5,0,3,0.1,4.6,0.2
			s2.2,0.2,2,0.2c3.8,0,7.9-1.1,12.5-3.2l2-0.9l1.2-0.5c0.4,2.4,0.6,4.9,0.6,7.3v3c3.2-6.9,7.8-10.4,13.7-10.4c3.2,0,5.9,1,8.1,3
			C455.2,71.5,456.3,74,456.3,77z"/>
		<path class="st2" d="M525,101.6c0,9.9-3,18.1-9,24.8c-6,6.7-13.5,10-22.4,10c-9.2,0-17-3.3-23.2-10c-6.2-6.6-9.3-14.9-9.3-24.8
			c0-10.2,3-18.6,9.1-25.3c6-6.7,13.6-10.1,22.6-10.1c9.1,0,16.8,3.4,22.9,10.1C521.9,83.2,525,91.6,525,101.6z M511.1,101.5
			c0-11.2-1.7-19.9-5.2-26c-2.5-4.6-6.8-6.9-12.8-6.9c-5.7,0-10.1,2.9-13.3,8.8c-3.2,5.8-4.8,13.9-4.8,24.3c0,10.3,1.7,18.3,5.1,24
			c3.4,5.7,8.1,8.6,14.2,8.6c4.7,0,8.1-1.8,10.4-5.3C509,122.2,511.1,113.1,511.1,101.5z"/>
	</g>
</g>
</svg>
