<svg id="Capa_1" data-name="Capa 1" xmlns="http://www.w3.org/2000/svg" viewBox="0 0 384.13 384.13"><defs><style>.cls-1{fill:#fff;stroke:#fff;stroke-miterlimit:10;stroke-width:4px;}</style></defs><title>4</title><path class="cls-1" d="M259.16,261.73c-.18-.8-3.24-4.22-14.7-7.57L243,260.72a5.36,5.36,0,0,1-4.34,4.11l-7.47,1.22a237.79,237.79,0,0,1-78.33,0l-7.48-1.22a5.34,5.34,0,0,1-4.33-4.11l-1.46-6.55c-11.44,3.34-14.51,6.77-14.7,7.62h0c.19.86,3.84,4.93,18.42,8.57,13.12,3.29,30.42,5.1,48.7,5.1s35.57-1.84,48.69-5.1c14.59-3.67,18.24-7.73,18.43-8.64Z"/><path class="cls-1" d="M150.74,254.91l3.91.64a227,227,0,0,0,74.83,0l3.91-.67L259,139.63a10.18,10.18,0,0,0-7.79-12.11,10.85,10.85,0,0,0-1.89-.23H242.4V150.9a5.34,5.34,0,0,1-10.68,0V127.28H178.33v64a5.34,5.34,0,1,1-10.67.36V127.28h-8.39v46.5a5.34,5.34,0,1,1-10.68.36V127.28H134.81a10.19,10.19,0,0,0-9.9,10.47,9.65,9.65,0,0,0,.22,1.86Z"/><path class="cls-1" d="M192.06,286.22c-19.79,0-38.47-2.05-52.58-5.76a70.6,70.6,0,0,1-14.53-5.3v70.52c.17.87,3.8,5,18.42,8.63,13.12,3.29,30.42,5.1,48.69,5.1s35.58-1.84,48.69-5.1c14.58-3.67,18.24-7.73,18.43-8.65V275.13a70.72,70.72,0,0,1-14.52,5.3C230.54,284.15,211.86,286.22,192.06,286.22Z"/><path class="cls-1" d="M146.3,96h91.53a9.92,9.92,0,0,0,0-19.83H215.45a5.34,5.34,0,1,1,0-10.68h3.3a9.8,9.8,0,0,0,9.91-9.68v-.12a9.59,9.59,0,0,0-2.53-6.5,62.93,62.93,0,0,1-13.78-24.49L201.17,35.88a33.58,33.58,0,0,1-24,9.8h-11.8a9.92,9.92,0,0,0,0,19.83h.38a5.34,5.34,0,1,1,0,10.68H146.3a9.92,9.92,0,0,0,0,19.83Z"/></svg>